<svg width="20" height="20" viewBox="0 0 20 20" fill="none" xmlns="http://www.w3.org/2000/svg">
<path fill-rule="evenodd" clip-rule="evenodd" d="M18.3332 6.59984V13.4082C18.3332 16.3498 16.4407 18.3332 13.6166 18.3332H6.39158C3.56658 18.3332 1.66658 16.3498 1.66658 13.4082V6.59984C1.66658 3.64984 3.56658 1.6665 6.39158 1.6665H13.6166C16.4407 1.6665 18.3332 3.64984 18.3332 6.59984ZM9.37491 8.10817V13.3998C9.37491 13.7498 9.65825 14.0248 9.99991 14.0248C10.3499 14.0248 10.6249 13.7498 10.6249 13.3998V8.10817L12.6832 10.1748C12.7999 10.2915 12.9666 10.3582 13.1249 10.3582C13.2824 10.3582 13.4416 10.2915 13.5666 10.1748C13.8082 9.93317 13.8082 9.53317 13.5666 9.2915L10.4416 6.14984C10.2082 5.9165 9.79158 5.9165 9.55825 6.14984L6.43325 9.2915C6.19158 9.53317 6.19158 9.93317 6.43325 10.1748C6.68325 10.4165 7.07491 10.4165 7.32491 10.1748L9.37491 8.10817Z" fill="#8F8F8F"/>
</svg>
