<svg width="20" height="20" viewBox="0 0 20 20" fill="none" xmlns="http://www.w3.org/2000/svg">
<path fill-rule="evenodd" clip-rule="evenodd" d="M4.16667 2.5H15.8333C16.75 2.5 17.5 3.25 17.5 4.16667V15.8333C17.5 16.75 16.75 17.5 15.8333 17.5H4.16667C3.24167 17.5 2.5 16.75 2.5 15.8333V4.16667C2.5 3.25 3.24167 2.5 4.16667 2.5ZM10.8333 10.8333H13.3333C13.7917 10.8333 14.1667 10.4583 14.1667 10C14.1667 9.54167 13.7917 9.16667 13.3333 9.16667H10.8333V6.66667C10.8333 6.20833 10.4583 5.83333 10 5.83333C9.54167 5.83333 9.16667 6.20833 9.16667 6.66667V9.16667H6.66667C6.20833 9.16667 5.83333 9.54167 5.83333 10C5.83333 10.4583 6.20833 10.8333 6.66667 10.8333H9.16667V13.3333C9.16667 13.7917 9.54167 14.1667 10 14.1667C10.4583 14.1667 10.8333 13.7917 10.8333 13.3333V10.8333Z" fill="#8F8F8F"/>
</svg>
