<svg width="50" height="50" viewBox="0 0 50 50" fill="none" xmlns="http://www.w3.org/2000/svg">
<path d="M44.3939 8.48467H23.71L20.0091 4.57345C18.4307 2.85527 16.627 2.02002 14.4949 2.02002H5.60606C2.51485 2.02002 0 4.53487 0 7.62608V42.3736C0 45.4648 2.51485 47.9796 5.60606 47.9796H44.3939C47.4851 47.9796 50 45.4648 50 42.3736V14.0907C50 10.9995 47.4851 8.48467 44.3939 8.48467ZM48.4848 42.3736C48.4848 44.6293 46.6497 46.4645 44.3939 46.4645H5.60606C3.3503 46.4645 1.51515 44.6293 1.51515 42.3736V18.9392C1.51515 16.6835 3.3503 14.8483 5.60606 14.8483H44.3939C46.6497 14.8483 48.4848 16.6835 48.4848 18.9392V42.3736ZM44.3939 13.3331H5.60606C3.99354 13.3331 2.53889 14.0184 1.51515 15.1119V7.62608C1.51515 5.37032 3.3503 3.53517 5.60606 3.53517H14.4949C16.204 3.53517 17.6028 4.19204 18.8969 5.60234C18.8995 5.60517 18.9021 5.6081 18.9048 5.61083L22.8336 9.76285C22.9767 9.91406 23.1757 9.99982 23.3838 9.99982H44.3939C46.6497 9.99982 48.4848 11.835 48.4848 14.0907V15.1119C47.4611 14.0184 46.0065 13.3331 44.3939 13.3331Z" fill="#D6D6D6"/>
<path d="M43.5859 18.1816H33.0808C32.6624 18.1816 32.3232 18.5207 32.3232 18.9392C32.3232 19.3577 32.6624 19.6968 33.0808 19.6968H43.5859C44.0043 19.6968 44.3434 19.3577 44.3434 18.9392C44.3434 18.5207 44.0043 18.1816 43.5859 18.1816Z" fill="#D6D6D6"/>
<path d="M43.5859 22.2222H33.0808C32.6624 22.2222 32.3232 22.5613 32.3232 22.9797C32.3232 23.3982 32.6624 23.7373 33.0808 23.7373H43.5859C44.0043 23.7373 44.3434 23.3982 44.3434 22.9797C44.3434 22.5613 44.0043 22.2222 43.5859 22.2222Z" fill="#D6D6D6"/>
</svg>
