<svg width="42" height="40" viewBox="0 0 42 40" fill="none" xmlns="http://www.w3.org/2000/svg">
<rect opacity="0.1" width="42" height="40" rx="20" fill="#5A7184"/>
<path d="M28.9583 20.521C28.9583 20.021 28.8958 19.646 28.8333 19.2397H21.4583V21.896H25.8333C25.6771 23.0522 24.5208 25.2397 21.4583 25.2397C18.8021 25.2397 16.6458 23.0522 16.6458 20.3335C16.6458 15.9897 21.7708 13.9897 24.5208 16.646L26.6458 14.6147C25.3021 13.3647 23.5208 12.5835 21.4583 12.5835C17.1458 12.5835 13.7083 16.0522 13.7083 20.3335C13.7083 24.646 17.1458 28.0835 21.4583 28.0835C25.9271 28.0835 28.9583 24.9585 28.9583 20.521Z" fill="#5A7184"/>
</svg>
