<svg width="40" height="40" viewBox="0 0 40 40" fill="none" xmlns="http://www.w3.org/2000/svg">
<rect opacity="0.1" width="40" height="40" rx="20" fill="#5A7184"/>
<path d="M26.3333 13.3335H14.3021C13.7708 13.3335 13.3333 13.8022 13.3333 14.3647V26.3335C13.3333 26.896 13.7708 27.3335 14.3021 27.3335H26.3333C26.8646 27.3335 27.3333 26.896 27.3333 26.3335V14.3647C27.3333 13.8022 26.8646 13.3335 26.3333 13.3335ZM17.5521 25.3335H15.4896V18.6772H17.5521V25.3335ZM16.5208 17.7397C15.8333 17.7397 15.3021 17.2085 15.3021 16.5522C15.3021 15.896 15.8333 15.3335 16.5208 15.3335C17.1771 15.3335 17.7083 15.896 17.7083 16.5522C17.7083 17.2085 17.1771 17.7397 16.5208 17.7397ZM25.3333 25.3335H23.2396V22.0835C23.2396 21.3335 23.2396 20.3335 22.1771 20.3335C21.0833 20.3335 20.9271 21.1772 20.9271 22.0522V25.3335H18.8646V18.6772H20.8333V19.5835H20.8646C21.1458 19.0522 21.8333 18.4897 22.8333 18.4897C24.9271 18.4897 25.3333 19.896 25.3333 21.6772V25.3335Z" fill="#5A7184"/>
</svg>
