<svg width="18" height="17" viewBox="0 0 18 17" fill="none" xmlns="http://www.w3.org/2000/svg">
<path d="M16.8588 4.08692C17.2827 3.6618 16.745 2.43422 15.6556 1.3451C14.5791 0.268595 13.3713 -0.266568 12.9322 0.131348L12.9236 0.12315L6.88924 5.54286C5.77358 4.57046 4.08649 4.60364 3.02374 5.66562C2.84488 5.84477 2.74407 6.08754 2.74407 6.34081C2.74407 6.59412 2.84484 6.83697 3.02374 7.01579L5.76132 9.75313L0.135544 16.1033C-0.043284 16.3048 -0.047244 16.6124 0.136065 16.8189C0.333685 17.0414 0.674389 17.0618 0.897368 16.8639L7.23953 11.2317L7.51187 11.5036L8.92224 12.9141L9.97603 13.9676C10.1549 14.1464 10.3977 14.2469 10.6508 14.2469C10.9036 14.2469 11.1465 14.1462 11.3253 13.967C12.3869 12.905 12.4204 11.2173 11.4483 10.1018L16.8396 4.09821C16.8451 4.09341 16.8537 4.09234 16.8588 4.08692Z" fill="#8F8F8F"/>
</svg>
