<svg width="20" height="20" viewBox="0 0 20 20" fill="none" xmlns="http://www.w3.org/2000/svg">
<g clip-path="url(#clip0)">
<path d="M10.038 6.39664C11.91 6.39664 13.7415 5.98739 15.195 5.24414C15.206 5.23865 15.2253 5.22934 15.2526 5.21652C15.5733 5.06653 15.9105 4.87533 16.2551 4.65042C15.95 2.22824 15.2721 0.78018 14.1922 0.235594C12.8708 -0.430757 11.4154 0.470427 10.5458 1.00891C10.3788 1.11236 10.1612 1.2471 10.038 1.30646C9.91504 1.2471 9.6973 1.11221 9.53036 1.00891C8.66077 0.470427 7.20538 -0.43091 5.88397 0.235594C4.81616 0.774077 4.14157 2.1962 3.83167 4.56909C4.11807 4.7792 4.4234 4.98413 4.66632 5.13061C6.15695 5.94696 8.0643 6.39664 10.038 6.39664Z" fill="#CFCFCF"/>
<path d="M3.64297 11.216C5.36066 11.8993 7.63177 12.2756 10.0379 12.2756C12.4442 12.2756 14.7154 11.8993 16.433 11.216C18.3215 10.4647 19.3617 9.39825 19.3617 8.21341C19.3617 7.55988 19.0391 6.59674 17.5021 5.71951C17.3696 5.64398 17.2323 5.57242 17.0881 5.50375C16.63 5.8158 16.1782 6.07825 15.7495 6.2789C15.7395 6.28363 15.7318 6.28729 15.726 6.28989C14.0873 7.12714 12.1206 7.56964 10.0379 7.56964C7.866 7.56964 5.75449 7.06671 4.09235 6.15347C4.05771 6.1344 3.57156 5.83578 3.07092 5.46484C2.89606 5.54526 2.73157 5.62949 2.57394 5.71951C1.03693 6.59689 0.714355 7.55988 0.714355 8.21341C0.714355 9.39841 1.75455 10.4647 3.64297 11.216Z" fill="#CFCFCF"/>
<path d="M18.7755 15.0019H18.0771C17.5328 13.6942 16.2418 12.7725 14.7394 12.7725C13.2288 12.7725 11.9321 13.7042 11.393 15.023C10.5162 14.5733 9.46396 14.575 8.58749 15.0334C8.05099 13.709 6.7514 12.7725 5.23682 12.7725C3.73444 12.7725 2.44339 13.6942 1.89911 15.0019H1.21124C0.887451 15.0019 0.625 15.2644 0.625 15.5882C0.625 15.912 0.887451 16.1744 1.21124 16.1744H1.62964C1.62552 16.2444 1.62323 16.3149 1.62323 16.386C1.62323 18.3785 3.24432 19.9996 5.23682 19.9996C7.22946 19.9996 8.8504 18.3785 8.8504 16.386C8.8504 16.3421 8.84933 16.2985 8.84781 16.255C9.51599 15.7321 10.4575 15.7284 11.1292 16.2362C11.127 16.2859 11.1258 16.3358 11.1258 16.386C11.1258 18.3785 12.7467 19.9996 14.7394 19.9996C16.7319 19.9996 18.3528 18.3785 18.3528 16.386C18.3528 16.3149 18.3505 16.2444 18.3466 16.1744H18.7755C19.0993 16.1744 19.3617 15.912 19.3617 15.5882C19.3617 15.2644 19.0993 15.0019 18.7755 15.0019Z" fill="#CFCFCF"/>
</g>
<defs>
<clipPath id="clip0">
<rect width="20" height="20" fill="white"/>
</clipPath>
</defs>
</svg>
