<svg width="20" height="20" viewBox="0 0 20 20" fill="none" xmlns="http://www.w3.org/2000/svg">
<path d="M10.0002 20.0001C15.5143 20.0001 20 15.5139 20 10.0003C20 4.48663 15.5139 0.000488281 10.0002 0.000488281C4.48652 0.000488281 0 4.4862 0 10.0003C0 15.5143 4.4861 20.0001 10.0002 20.0001ZM17.8658 8.22755C17.0317 7.74119 17.2403 8.29691 17.2403 8.29691C17.2403 8.29691 17.2403 8.29691 17.7964 8.78327C18.3526 9.26967 18.7696 9.47856 18.561 10.1596C18.3526 10.8408 18.0049 10.2428 17.31 10.799C16.6147 11.3551 18.144 11.4942 18.2134 12.3283C18.2828 13.1623 17.3794 12.7453 16.9624 13.5793C16.5454 14.4133 16.893 15.3171 16.6845 16.0818C16.476 16.8464 14.7381 17.889 14.107 18.2367C13.4758 18.5843 13.9041 17.472 14.107 16.7073C14.3098 15.9426 13.6259 15.1086 13.6259 13.7184C13.6259 12.3283 13.2089 12.7453 11.9578 12.7453C10.7068 12.7453 10.1507 12.05 10.0115 10.7296C9.87238 9.40877 11.0541 8.08837 11.6102 7.67137C12.1664 7.25432 12.931 6.83732 13.6953 7.25432C14.4599 7.67137 14.7378 8.08837 15.5718 8.08837C16.4058 8.08837 16.4058 7.81051 16.8926 7.46282C17.379 7.11518 16.1973 6.69818 15.5024 6.7708C14.8075 6.84343 14.9463 6.35096 14.0429 6.00332C13.1395 5.65567 12.7918 6.35096 12.5136 6.48968C12.2357 6.62882 11.2626 7.04582 11.1651 6.48968C11.0682 5.93353 11.6791 5.86418 12.305 5.86418C12.9306 5.86418 12.3744 5.37782 12.1659 5.03013C11.9574 4.68249 11.5404 4.68249 11.239 4.41112C10.938 4.13975 11.6098 3.63998 12.3046 3.80589C12.9995 3.9718 12.7216 4.47403 13.4862 4.40463C14.2509 4.33523 13.4862 3.63998 13.4862 2.96659C13.4862 2.29319 14.3203 2.31915 14.8764 2.05063C15.4325 1.78206 16.1274 3.22294 16.6142 3.80589C16.7753 3.99899 17.0053 3.91339 17.2406 3.71626C18.4702 5.13118 19.2924 6.90753 19.5244 8.86357C18.5307 9.23519 18.5952 8.65308 17.8658 8.22755ZM10.0002 0.406121C10.3839 0.406121 10.7616 0.431277 11.1336 0.47548C10.9973 0.854769 10.7757 1.13793 10.7757 1.13793C10.7757 1.13793 10.4979 2.04129 9.87199 2.11108C9.24607 2.18086 8.4818 2.11108 8.13416 2.66722C7.78652 3.22336 7.8563 4.19655 7.30016 3.64037C6.74402 3.08422 7.2308 3.04163 6.67461 2.47208C6.11847 1.90258 5.97933 1.90258 5.70147 1.90258C5.61951 1.90258 5.52661 1.76102 5.4528 1.55413C6.80727 0.822317 8.35564 0.406121 10.0002 0.406121ZM4.19933 2.36463C4.18389 2.46483 4.27191 2.61046 4.6991 2.78854C5.53314 3.13619 5.72539 3.8246 5.34127 3.79741C4.9571 3.77022 3.39612 3.98317 4.83175 4.40017C6.26775 4.81722 6.14931 5.306 5.51083 5.5145C4.8723 5.72304 5.00903 4.82044 4.86988 5.72423C4.73074 6.62801 4.59079 6.55865 4.13892 6.6978C3.68701 6.83694 2.85258 7.53222 2.85258 8.01863C2.85258 8.50499 2.5743 8.77721 3.13044 9.19421C3.68658 9.61121 2.95638 10.3739 2.69354 9.81814C2.37793 9.15123 2.15725 8.78327 1.80961 8.71353C1.46197 8.64417 1.01412 9.19989 1.80961 9.75603C2.60509 10.3122 2.64365 10.6598 2.64365 11.0768C2.64365 11.4938 3.21927 11.4938 3.66143 11.4245C4.1032 11.3551 5.01064 12.5368 5.3218 13.0232C5.63253 13.5096 6.18868 13.9963 6.95332 14.2048C7.71797 14.4133 7.99587 14.9001 7.57887 15.2473C7.16187 15.595 7.09251 16.429 6.60572 16.6375C6.11894 16.846 6.04958 17.4715 5.77168 17.7499C5.60861 17.9129 5.45042 18.1246 5.31815 18.3693C4.90318 18.1361 4.50727 17.8728 4.13286 17.5827C4.12149 17.521 4.10893 17.4586 4.10325 17.4022C4.03389 16.7069 3.9641 15.8729 3.5471 15.5257C3.13006 15.178 2.85182 14.6917 2.71306 14.1355C2.5743 13.5794 2.92156 12.7453 2.6437 12.1892C2.36584 11.6331 2.36584 12.1543 1.80965 11.3726C1.25351 10.5909 1.25351 10.5905 0.905865 9.96496C0.720102 9.6303 0.594747 9.09689 0.517667 8.53502C0.903405 6.02767 2.26475 3.83796 4.19933 2.36463Z" fill="#AFAFAF"/>
</svg>
