<svg width="20" height="16" viewBox="0 0 20 16" fill="none" xmlns="http://www.w3.org/2000/svg">
<path d="M18.687 10.5773H17.5602L15.5589 8.13125C15.3086 7.82516 14.9381 7.64961 14.5427 7.64961H10.3906V5.42227H14.1004C14.8243 5.42227 15.4134 4.83324 15.4134 4.10926V1.51711C15.4134 0.793125 14.8243 0.204102 14.1004 0.204102H11.7345C11.5188 0.204102 11.3439 0.379023 11.3439 0.594727C11.3439 0.81043 11.5188 0.985352 11.7345 0.985352H14.1004C14.3936 0.985352 14.6321 1.22387 14.6321 1.51711V4.10926C14.6321 4.4025 14.3936 4.64102 14.1004 4.64102H5.89965C5.60641 4.64102 5.36789 4.4025 5.36789 4.10926V1.51711C5.36789 1.22387 5.60641 0.985352 5.89965 0.985352H8.26941C8.48512 0.985352 8.66004 0.81043 8.66004 0.594727C8.66004 0.379023 8.48512 0.204102 8.26941 0.204102H5.89965C5.17566 0.204102 4.58664 0.793125 4.58664 1.51711V4.10926C4.58664 4.83324 5.17566 5.42227 5.89965 5.42227H9.60938V7.64961H5.44152C5.04605 7.64961 4.67566 7.82516 4.42531 8.13121L2.42402 10.5773H1.31301C0.589023 10.5773 0 11.1663 0 11.8904V14.4825C0 15.2065 0.589023 15.7955 1.31301 15.7955H3.90516C4.62914 15.7955 5.21816 15.2065 5.21816 14.4825V11.8904C5.21816 11.1664 4.62914 10.5773 3.90516 10.5773H3.4334L5.03 8.6259C5.13141 8.50196 5.28141 8.4309 5.44152 8.4309H9.60938V10.5773H8.70391C7.97992 10.5773 7.3909 11.1664 7.3909 11.8904V14.4825C7.3909 15.2065 7.97992 15.7955 8.70391 15.7955H11.2961C12.02 15.7955 12.6091 15.2065 12.6091 14.4825V11.8904C12.6091 11.1664 12.02 10.5773 11.2961 10.5773H10.3906V8.4309H14.5427C14.7028 8.4309 14.8528 8.50195 14.9542 8.62594L16.5508 10.5773H16.0948C15.3708 10.5773 14.7818 11.1664 14.7818 11.8904V14.4825C14.7818 15.2065 15.3708 15.7955 16.0948 15.7955H18.687C19.4109 15.7955 20 15.2065 20 14.4825V11.8904C20 11.1663 19.411 10.5773 18.687 10.5773ZM4.43695 11.8904V14.4825C4.43695 14.7757 4.19844 15.0143 3.9052 15.0143H1.31301C1.01977 15.0143 0.78125 14.7757 0.78125 14.4825V11.8904C0.78125 11.5971 1.01977 11.3586 1.31301 11.3586H3.90516C4.1984 11.3586 4.43695 11.5971 4.43695 11.8904ZM11.8279 11.8904V14.4825C11.8279 14.7757 11.5893 15.0143 11.2961 15.0143H8.70391C8.41066 15.0143 8.17215 14.7757 8.17215 14.4825V11.8904C8.17215 11.5971 8.41066 11.3586 8.70391 11.3586H11.2961C11.5893 11.3586 11.8279 11.5971 11.8279 11.8904ZM19.2188 14.4825C19.2188 14.7757 18.9802 15.0143 18.687 15.0143H16.0948C15.8016 15.0143 15.5631 14.7757 15.5631 14.4825V11.8904C15.5631 11.5971 15.8016 11.3586 16.0948 11.3586H18.687C18.9802 11.3586 19.2188 11.5971 19.2188 11.8904V14.4825Z" fill="#CFCFCF"/>
<path d="M9.63943 0.743824C9.72017 0.940659 9.95303 1.03656 10.1492 0.955151C10.3457 0.873628 10.4422 0.642105 10.3605 0.445348C10.2789 0.24863 10.0476 0.152029 9.85037 0.23363C9.65412 0.314841 9.55787 0.547887 9.63943 0.743824Z" fill="#CFCFCF"/>
</svg>
