<svg width="42" height="40" viewBox="0 0 42 40" fill="none" xmlns="http://www.w3.org/2000/svg">
<rect opacity="0.1" width="42" height="40" rx="20" fill="#5A7184"/>
<path d="M27.6771 17.0835C28.3021 16.6147 28.8646 16.0522 29.3021 15.396C28.7396 15.646 28.0833 15.8335 27.4271 15.896C28.1146 15.4897 28.6146 14.8647 28.8646 14.0835C28.2396 14.4585 27.5208 14.7397 26.8021 14.896C26.1771 14.2397 25.3333 13.8647 24.3958 13.8647C22.5833 13.8647 21.1146 15.3335 21.1146 17.146C21.1146 17.396 21.1458 17.646 21.2083 17.896C18.4896 17.7397 16.0521 16.4272 14.4271 14.4585C14.1458 14.9272 13.9896 15.4897 13.9896 16.1147C13.9896 17.2397 14.5521 18.2397 15.4583 18.8335C14.9271 18.8022 14.3958 18.6772 13.9583 18.4272V18.4585C13.9583 20.0522 15.0833 21.3647 16.5833 21.6772C16.3333 21.7397 16.0208 21.8022 15.7396 21.8022C15.5208 21.8022 15.3333 21.771 15.1146 21.7397C15.5208 23.0522 16.7396 23.9897 18.1771 24.021C17.0521 24.896 15.6458 25.4272 14.1146 25.4272C13.8333 25.4272 13.5833 25.396 13.3333 25.3647C14.7708 26.3022 16.4896 26.8335 18.3646 26.8335C24.3958 26.8335 27.6771 21.8647 27.6771 17.521C27.6771 17.3647 27.6771 17.2397 27.6771 17.0835Z" fill="#5A7184"/>
</svg>
