<svg width="20" height="20" viewBox="0 0 20 20" fill="none" xmlns="http://www.w3.org/2000/svg">
<g clip-path="url(#clip0)">
<path d="M19.4863 16.9812L15.1706 12.6654L14.3374 13.4986L13.4056 12.5864C15.967 9.59635 15.8328 5.07621 13.0031 2.24649C10.0325 -0.72409 5.19898 -0.72409 2.22844 2.24649C-0.742141 5.21707 -0.742141 10.0506 2.22844 13.0212C3.71376 14.5065 5.66474 15.2491 7.6158 15.2491C9.38556 15.2491 11.1553 14.638 12.5774 13.4159L13.5085 14.3274L12.6841 15.1519L16.9999 19.4676C17.3426 19.8104 17.7929 19.9818 18.2431 19.9818C18.6933 19.9818 19.1436 19.8104 19.4863 19.4676C20.1719 18.7821 20.1719 17.6667 19.4863 16.9812ZM10.5461 8.21992H8.20183V10.5642H7.02969V8.21992H4.68542V7.04778H7.02969V4.70351H8.20183V7.04778H10.5461V8.21992Z" fill="#8F8F8F"/>
</g>
<defs>
<clipPath id="clip0">
<rect width="20" height="20" fill="white"/>
</clipPath>
</defs>
</svg>
